<?xml version="1.0" encoding="utf-8"?>
<!-- Generator: Adobe Illustrator 27.1.0, SVG Export Plug-In . SVG Version: 6.00 Build 0)  -->
<svg version="1.1" id="Layer_1" xmlns="http://www.w3.org/2000/svg" xmlns:xlink="http://www.w3.org/1999/xlink" x="0px" y="0px"
	 viewBox="0 0 166.21 166.21" style="enable-background:new 0 0 166.21 166.21;" xml:space="preserve">
<style type="text/css">
	.st0{fill:#FBDB15;}
	.st1{fill:#FFFFFF;}
</style>
<g id="u0igU1_00000158733180468590364900000013843342734901890446_">
	<g>
		<path class="st1" d="M77.56,0c3.69,0,7.39,0,11.08,0c2.79,0.43,5.58,0.84,8.37,1.3c32.96,5.44,59.59,30.59,67,63.16
			c0.99,4.34,1.26,8.77,2.19,13.11c0,3.69,0,7.39,0,11.08c-0.48,3.25-0.88,6.51-1.46,9.75c-5.81,32.16-31.01,58.36-62.99,65.63
			c-4.34,0.99-8.77,1.27-13.11,2.19c-3.69,0-7.39,0-11.08,0c-3.25-0.48-6.51-0.87-9.74-1.47C34.64,158.61,8.28,132.59,1.75,99.5
			C1.04,95.9,0.58,92.26,0,88.64c0-3.69,0-7.39,0-11.08c0.43-2.8,0.85-5.59,1.3-8.39C6.57,36.52,32,9.51,64.22,2.22
			C68.63,1.23,73.14,0.9,77.56,0z M83.27,13.83c-38.16-0.09-69.3,30.88-69.43,69.06c-0.13,38.16,30.84,69.35,68.98,69.48
			c38.32,0.13,69.45-30.83,69.55-69.15C152.45,45.09,121.43,13.93,83.27,13.83z"/>
		<path class="st1" d="M69.47,83.34c0-8-0.01-15.99,0.01-23.99c0-1.71,0.09-3.38,1.71-4.52c2.32-1.62,4.19-0.48,6.06,0.88
			c7.51,5.47,15.02,10.94,22.53,16.4c3.35,2.44,6.72,4.85,10.05,7.32c3.16,2.34,3.22,5.23,0.08,7.52C98.88,95,87.8,103,76.75,111.04
			c-1.61,1.17-3.29,1.73-5.15,0.81c-1.84-0.92-2.14-2.68-2.14-4.52C69.47,99.33,69.47,91.33,69.47,83.34z"/>
	</g>
</g>
</svg>
